<svg width="25" height="24" viewBox="0 0 25 24" fill="none" xmlns="http://www.w3.org/2000/svg">
<mask id="mask0_5_5088" style="mask-type:alpha" maskUnits="userSpaceOnUse" x="0" y="0" width="25" height="24">
<rect x="0.5" width="24" height="24" fill="var(--mono-gray-line-1)"/>
</mask>
<g mask="url(#mask0_5_5088)">
<path fill-rule="evenodd" clip-rule="evenodd" d="M12.4956 6.54617C11.9478 6.54617 11.5038 6.99019 11.5038 7.53791V11.0068H8.03568C7.48796 11.0068 7.04395 11.4508 7.04395 11.9985C7.04395 12.5462 7.48796 12.9902 8.03568 12.9902H11.5038V16.4635C11.5038 17.0112 11.9478 17.4553 12.4956 17.4553C13.0433 17.4553 13.4873 17.0112 13.4873 16.4635V12.9902H16.9613C17.509 12.9902 17.953 12.5462 17.953 11.9985C17.953 11.4508 17.509 11.0068 16.9613 11.0068H13.4873V7.53791C13.4873 6.99019 13.0433 6.54617 12.4956 6.54617Z" fill="white"/>
</g>
</svg>
