<svg width="24" height="24" viewBox="0 0 24 24" fill="none" xmlns="http://www.w3.org/2000/svg">
<path fill-rule="evenodd" clip-rule="evenodd" d="M5.25 6C4.83579 6 4.5 6.33579 4.5 6.75V12.75C4.5 13.1642 4.83579 13.5 5.25 13.5H18.75C19.1642 13.5 19.5 13.1642 19.5 12.75V6.75C19.5 6.33579 19.1642 6 18.75 6H5.25ZM3 6.75C3 5.50736 4.00736 4.5 5.25 4.5H18.75C19.9926 4.5 21 5.50736 21 6.75V12.75C21 13.9926 19.9926 15 18.75 15H5.25C4.00736 15 3 13.9926 3 12.75V6.75Z" fill="#21272A"/>
<path fill-rule="evenodd" clip-rule="evenodd" d="M5.2479 1.5L5.25 1.5H18.75L18.7521 1.5C19.3478 1.50167 19.9186 1.73904 20.3398 2.16024C20.7606 2.58112 20.998 3.15136 21 3.74652C21 3.74768 21 3.74884 21 3.75V15.75V17.25V18.75C21 19.4164 20.7103 20.0151 20.25 20.4271V21.2812C20.25 21.6045 20.1216 21.9145 19.893 22.143C19.6645 22.3716 19.3545 22.5 19.0312 22.5H17.7188C17.3955 22.5 17.0855 22.3716 16.857 22.143C16.6284 21.9145 16.5 21.6045 16.5 21.2812V21H7.5V21.2812C7.5 21.6045 7.3716 21.9145 7.14304 22.143C6.91448 22.3716 6.60448 22.5 6.28125 22.5H4.96875C4.64552 22.5 4.33552 22.3716 4.10696 22.143C3.8784 21.9145 3.75 21.6045 3.75 21.2812V20.4271C3.28969 20.0151 3 19.4164 3 18.75V17.25V15.75V3.7521V3.75V3.7479C3.00167 3.15223 3.23904 2.58144 3.66024 2.16024C4.08144 1.73904 4.65223 1.50167 5.2479 1.5ZM19.5 17.25V15.75C19.5 15.3358 19.1642 15 18.75 15H12H5.25C4.83579 15 4.5 15.3358 4.5 15.75V17.25V18.75C4.5 19.1642 4.83579 19.5 5.25 19.5H6.75H17.25H18.75C19.1642 19.5 19.5 19.1642 19.5 18.75V17.25ZM19.5 13.628V5.87009C19.262 5.95458 19.0094 5.99928 18.7521 6L18.75 5.25V6H12.75V13.5H18.75C19.013 13.5 19.2654 13.5451 19.5 13.628ZM5.25 13.5C4.98702 13.5 4.73458 13.5451 4.5 13.628V5.87009C4.73796 5.95458 4.99061 5.99928 5.2479 6L5.25 6H11.25V13.5H5.25ZM12 4.5H18.7487C18.9477 4.49922 19.1384 4.41983 19.2791 4.2791C19.4195 4.13867 19.4989 3.94853 19.5 3.74999C19.4989 3.55146 19.4195 3.36133 19.2791 3.2209C19.1384 3.08018 18.9478 3.00079 18.7488 3H5.25122C5.05224 3.00079 4.86162 3.08018 4.7209 3.2209C4.58047 3.36133 4.50111 3.55146 4.5 3.75C4.50111 3.94854 4.58047 4.13867 4.7209 4.2791C4.86162 4.41983 5.05226 4.49922 5.25125 4.5H12ZM17.25 15.75C16.4216 15.75 15.75 16.4216 15.75 17.25C15.75 18.0784 16.4216 18.75 17.25 18.75C18.0784 18.75 18.75 18.0784 18.75 17.25C18.75 16.4216 18.0784 15.75 17.25 15.75ZM5.25 17.25C5.25 16.4216 5.92157 15.75 6.75 15.75C7.57843 15.75 8.25 16.4216 8.25 17.25C8.25 18.0784 7.57843 18.75 6.75 18.75C5.92157 18.75 5.25 18.0784 5.25 17.25Z" fill="#386DE8"/>
</svg>
