<svg width="26" height="21" viewBox="0 0 26 21" fill="none" xmlns="http://www.w3.org/2000/svg">
<path fill-rule="evenodd" clip-rule="evenodd" d="M24.7813 20.8H1.21873C0.545489 20.8 0 20.2629 0 19.6V4.89192C0 4.22942 0.545489 3.69194 1.21873 3.69194H6.42384L8.37574 0.478529C8.59832 0.189482 8.94704 0 9.34378 0H16.6562C16.9986 0 17.3065 0.140217 17.5283 0.363677L17.5291 0.362514L19.5988 3.69194H24.7813C25.4545 3.69194 26 4.22942 26 4.89192V19.6C26 20.2629 25.4545 20.8 24.7813 20.8ZM13.0003 6.15234C9.44469 6.15234 6.5625 8.99053 6.5625 12.491C6.5625 15.9919 9.44469 18.8298 13.0003 18.8298C16.5558 18.8298 19.438 15.9919 19.438 12.491C19.438 8.99053 16.5558 6.15234 13.0003 6.15234ZM9.27344 12.4926C9.27344 14.5184 10.9416 16.161 12.9991 16.161C15.0569 16.161 16.7248 14.5184 16.7248 12.4926C16.7248 10.4664 15.0569 8.82422 12.9991 8.82422C10.9416 8.82422 9.27344 10.4664 9.27344 12.4926Z" fill="#414141"/>
<mask id="mask0_1_2944" style="mask-type:luminance" maskUnits="userSpaceOnUse" x="6" y="6" width="14" height="13">
<path fill-rule="evenodd" clip-rule="evenodd" d="M6.5625 12.491C6.5625 8.99053 9.44469 6.15234 13.0003 6.15234C16.5558 6.15234 19.438 8.99053 19.438 12.491C19.438 15.9919 16.5558 18.8298 13.0003 18.8298C9.44469 18.8298 6.5625 15.9919 6.5625 12.491ZM9.27344 12.4926C9.27344 14.5184 10.9416 16.161 12.9991 16.161C15.0569 16.161 16.7248 14.5184 16.7248 12.4926C16.7248 10.4664 15.0569 8.82422 12.9991 8.82422C10.9416 8.82422 9.27344 10.4664 9.27344 12.4926Z" fill="white"/>
</mask>
<g mask="url(#mask0_1_2944)">
</g>
</svg>
