<svg width="18" height="18" viewBox="0 0 18 18" fill="none" xmlns="http://www.w3.org/2000/svg">
<path fill-rule="evenodd" clip-rule="evenodd" d="M6.50391 5.0625C5.70784 5.0625 5.0625 5.70784 5.0625 6.50391V14.3086C5.0625 15.1047 5.70784 15.75 6.50391 15.75H14.3086C15.1047 15.75 15.75 15.1047 15.75 14.3086V6.50391C15.75 5.70784 15.1047 5.0625 14.3086 5.0625H6.50391ZM3.9375 6.50391C3.9375 5.08652 5.08652 3.9375 6.50391 3.9375H14.3086C15.726 3.9375 16.875 5.08652 16.875 6.50391V14.3086C16.875 15.726 15.726 16.875 14.3086 16.875H6.50391C5.08652 16.875 3.9375 15.726 3.9375 14.3086V6.50391Z" fill="var(--mono-gray-txt-light)"/>
<path fill-rule="evenodd" clip-rule="evenodd" d="M3.93584 1.125L3.9375 1.125H11.5312L11.5329 1.125C12.2032 1.12691 12.8455 1.39404 13.3195 1.86803C13.7935 2.34201 14.0606 2.98433 14.0625 3.65465C14.0625 3.65909 14.0625 3.66353 14.0624 3.66797L14.0448 4.51172C14.0383 4.82231 13.7813 5.06885 13.4707 5.06238C13.1601 5.05591 12.9136 4.79888 12.92 4.48828L12.9375 3.65176C12.9348 3.2809 12.7863 2.92588 12.524 2.66352C12.2604 2.3999 11.9032 2.25125 11.5304 2.25H3.93839C3.49108 2.25152 3.06252 2.42989 2.7462 2.7462C2.42989 3.06252 2.25152 3.49108 2.25 3.93839V11.5304C2.25125 11.9032 2.3999 12.2604 2.66352 12.524C2.92715 12.7876 3.28435 12.9363 3.65716 12.9375H4.5C4.81066 12.9375 5.0625 13.1893 5.0625 13.5C5.0625 13.8107 4.81066 14.0625 4.5 14.0625H3.65625L3.65465 14.0625C2.98433 14.0606 2.34201 13.7935 1.86803 13.3195C1.39404 12.8455 1.12691 12.2032 1.125 11.5329L1.125 11.5312V3.9375L1.125 3.93584C1.1272 3.19103 1.42405 2.47737 1.95071 1.95071C2.47737 1.42405 3.19103 1.1272 3.93584 1.125Z" fill="var(--mono-gray-txt-light)"/>
</svg>
