<svg width="24" height="24" viewBox="0 0 24 24" fill="none" xmlns="http://www.w3.org/2000/svg">
<path d="M20.2501 21C20.1516 21.0002 20.054 20.9808 19.963 20.9431C19.872 20.9054 19.7894 20.85 19.7199 20.7802L3.21994 4.28016C3.08522 4.13836 3.01123 3.94955 3.01373 3.75398C3.01624 3.55841 3.09504 3.37155 3.23334 3.23325C3.37164 3.09495 3.5585 3.01615 3.75407 3.01364C3.94964 3.01114 4.13845 3.08513 4.28025 3.21985L20.7803 19.7198C20.8851 19.8247 20.9564 19.9583 20.9854 20.1038C21.0143 20.2492 20.9994 20.4 20.9427 20.537C20.8859 20.674 20.7899 20.7911 20.6666 20.8735C20.5433 20.9559 20.3984 20.9999 20.2501 21Z" fill="#21272A"/>
<path d="M11.984 18C10.0392 18 8.16371 17.4244 6.40965 16.2891C4.81261 15.2578 3.37496 13.7808 2.25183 12.0234V12.0197C3.18652 10.6805 4.21027 9.54797 5.30996 8.63485C5.31991 8.62653 5.32802 8.61624 5.33379 8.60463C5.33956 8.59301 5.34285 8.58033 5.34347 8.56738C5.34409 8.55443 5.34201 8.54149 5.33737 8.52938C5.33273 8.51727 5.32563 8.50626 5.31652 8.49703L4.38277 7.56469C4.36618 7.54796 4.34389 7.53809 4.32035 7.53705C4.29682 7.53601 4.27375 7.54387 4.25574 7.55906C3.08761 8.54344 2.0034 9.75094 1.01761 11.1647C0.848014 11.4081 0.754608 11.6965 0.749266 11.9931C0.743924 12.2897 0.826888 12.5813 0.987615 12.8306C2.22558 14.768 3.81886 16.3997 5.59449 17.5486C7.59371 18.8438 9.74527 19.5 11.984 19.5C13.1924 19.4962 14.3923 19.2971 15.5371 18.9103C15.5522 18.9052 15.5658 18.8963 15.5765 18.8845C15.5872 18.8727 15.5947 18.8583 15.5983 18.8428C15.602 18.8272 15.6015 18.811 15.5972 18.7957C15.5928 18.7804 15.5845 18.7664 15.5732 18.7552L14.5617 17.7436C14.5384 17.7209 14.5096 17.7046 14.4781 17.6964C14.4466 17.6882 14.4136 17.6883 14.3821 17.6967C13.5987 17.8985 12.793 18.0004 11.984 18Z" fill="#21272A"/>
<path d="M23.0086 11.1844C21.7683 9.26625 20.1591 7.63688 18.3553 6.47203C16.3599 5.18203 14.1567 4.5 11.9845 4.5C10.7889 4.50212 9.60221 4.70543 8.47407 5.10141C8.45904 5.10664 8.44559 5.11561 8.43498 5.12747C8.42438 5.13934 8.41697 5.15371 8.41345 5.16923C8.40993 5.18475 8.41043 5.20091 8.41488 5.21619C8.41934 5.23147 8.42761 5.24536 8.43892 5.25656L9.44907 6.26672C9.47259 6.28984 9.50178 6.30634 9.53372 6.31457C9.56565 6.3228 9.59919 6.32246 9.63095 6.31359C10.3983 6.10602 11.1896 6.00058 11.9845 6C13.8919 6 15.7617 6.58266 17.5416 7.73438C19.1686 8.78438 20.6231 10.26 21.7491 12C21.7499 12.0011 21.7504 12.0024 21.7504 12.0037C21.7504 12.0051 21.7499 12.0064 21.7491 12.0075C20.9318 13.2942 19.9175 14.4446 18.7434 15.4167C18.7334 15.425 18.7252 15.4353 18.7193 15.4469C18.7135 15.4586 18.7101 15.4713 18.7094 15.4843C18.7088 15.4973 18.7108 15.5103 18.7155 15.5225C18.7201 15.5347 18.7273 15.5457 18.7364 15.555L19.6692 16.4873C19.6857 16.504 19.7079 16.5139 19.7313 16.515C19.7548 16.5161 19.7778 16.5084 19.7958 16.4934C21.0492 15.4381 22.1342 14.1975 23.0133 12.8147C23.1687 12.571 23.2508 12.2878 23.25 11.9988C23.2492 11.7098 23.1654 11.4272 23.0086 11.1844Z" fill="#21272A"/>
<path d="M12.0002 7.5C11.6632 7.49982 11.3271 7.53756 10.9985 7.6125C10.9819 7.61595 10.9666 7.62383 10.9541 7.63531C10.9416 7.64679 10.9325 7.66144 10.9277 7.6777C10.9229 7.69395 10.9226 7.71121 10.9268 7.72763C10.931 7.74405 10.9396 7.75901 10.9516 7.77094L16.2293 13.0472C16.2412 13.0592 16.2562 13.0678 16.2726 13.0721C16.289 13.0763 16.3063 13.076 16.3225 13.0712C16.3388 13.0663 16.3534 13.0572 16.3649 13.0447C16.3764 13.0323 16.3843 13.0169 16.3877 13.0003C16.538 12.3413 16.5379 11.6568 16.3873 10.9979C16.2368 10.3389 15.9397 9.72228 15.5182 9.19385C15.0967 8.66542 14.5615 8.23874 13.9525 7.9455C13.3435 7.65226 12.6762 7.49999 12.0002 7.5Z" fill="#21272A"/>
<path d="M7.77091 10.9528C7.75899 10.9408 7.74402 10.9322 7.7276 10.928C7.71118 10.9237 7.69392 10.924 7.67767 10.9289C7.66141 10.9337 7.64676 10.9428 7.63528 10.9553C7.6238 10.9677 7.61592 10.9831 7.61247 10.9997C7.44248 11.7424 7.46382 12.516 7.67451 13.2482C7.88519 13.9803 8.27832 14.647 8.81704 15.1857C9.35577 15.7245 10.0224 16.1176 10.7546 16.3283C11.4868 16.539 12.2604 16.5603 13.0031 16.3903C13.0197 16.3869 13.0351 16.379 13.0475 16.3675C13.06 16.356 13.0691 16.3414 13.0739 16.3251C13.0787 16.3089 13.0791 16.2916 13.0748 16.2752C13.0706 16.2588 13.062 16.2438 13.05 16.2319L7.77091 10.9528Z" fill="#21272A"/>
</svg>
