<svg width="24" height="24" viewBox="0 0 24 24" fill="none" xmlns="http://www.w3.org/2000/svg">
<path d="M15.7504 12C14.7847 12 13.8566 11.5687 13.1254 10.7906C12.4175 10.0312 11.9816 9.01406 11.9066 7.93125C11.8269 6.77812 12.1785 5.71406 12.8957 4.94063C13.6129 4.17188 14.6254 3.75 15.7504 3.75C16.866 3.75 17.8785 4.17656 18.5957 4.94531C19.3222 5.72344 19.6738 6.78281 19.5894 7.92656C19.5097 9.00938 19.0785 10.0266 18.3707 10.7859C17.6441 11.5688 16.716 12 15.7504 12ZM15.7504 5.25C15.0472 5.25 14.4238 5.50312 13.9972 5.9625C13.5566 6.43594 13.355 7.07812 13.4066 7.82344C13.4582 8.56406 13.7488 9.25781 14.2269 9.76875C14.6675 10.2422 15.2113 10.5 15.7504 10.5C16.2941 10.5 16.8332 10.2375 17.2738 9.76875C17.7519 9.25781 18.0425 8.56875 18.0941 7.82344C18.1457 7.10156 17.9347 6.44063 17.4941 5.97188C17.0675 5.50313 16.4441 5.25 15.7504 5.25Z" fill="#333333"/>
<path d="M21.928 20.25H9.57179C9.16397 20.25 8.78897 20.0672 8.54054 19.7485C8.28272 19.4156 8.18897 18.9656 8.2921 18.5391C8.68585 16.9547 9.66554 15.6422 11.1187 14.7375C12.4077 13.936 14.053 13.4953 15.7452 13.4953C17.4702 13.4953 19.0733 13.9172 20.3718 14.7188C21.8296 15.6141 22.8093 16.936 23.203 18.5391C23.3062 18.9656 23.2124 19.4156 22.9546 19.7485C22.7108 20.0672 22.3358 20.25 21.928 20.25ZM9.7921 18.75H21.7124C20.939 15.9844 18.0374 15 15.7499 15C13.4718 15 10.5749 15.9844 9.7921 18.75Z" fill="#333333"/>
<path d="M6.89093 12.1875C5.24093 12.1875 3.79249 10.6547 3.65655 8.77029C3.58624 7.80467 3.88624 6.91404 4.49561 6.25779C5.1003 5.61092 5.94874 5.25467 6.88624 5.25467C7.81905 5.25467 8.66749 5.61561 9.27218 6.26717C9.88624 6.92811 10.1862 7.81873 10.1159 8.77498C9.98936 10.6547 8.53624 12.1875 6.89093 12.1875ZM6.89093 6.74998C6.3753 6.74998 5.91593 6.93748 5.59718 7.27967C5.26905 7.63123 5.11436 8.10936 5.15655 8.66248C5.23624 9.75936 6.02843 10.6875 6.89093 10.6875C7.75343 10.6875 8.5503 9.75936 8.6253 8.66248C8.6628 8.12342 8.50343 7.63592 8.17999 7.28436C7.86124 6.93748 7.40186 6.74998 6.89093 6.74998Z" fill="#333333"/>
<path d="M7.21879 18.75H1.95472C1.58441 18.75 1.24222 18.5812 1.01254 18.2953C0.778161 17.9953 0.693786 17.5828 0.787536 17.1984C1.11097 15.8906 1.91722 14.8125 3.11254 14.0719C4.16722 13.4203 5.50785 13.0594 6.88597 13.0594C8.06722 13.0594 9.07504 13.2562 9.96566 13.664C10.3407 13.8375 10.5094 14.2828 10.336 14.6578C10.1625 15.0328 9.71722 15.2015 9.34222 15.0281C8.65316 14.714 7.8516 14.5594 6.89066 14.5594C5.17972 14.5594 3.01879 15.2719 2.33441 17.2547H7.21879C7.63129 17.2547 7.96879 17.5922 7.96879 18.0047C7.96879 18.4172 7.63129 18.75 7.21879 18.75Z" fill="#333333"/>
</svg>
