<svg width="14" height="14" viewBox="0 0 14 14" fill="none" xmlns="http://www.w3.org/2000/svg">
<g clip-path="url(#clip0_1_635)">
<path d="M3.5 5.24996V1.16663H10.5V5.24996" stroke="var(--mono-gray-icon)" stroke-linecap="round" stroke-linejoin="round"/>
<path d="M3.50008 10.5H2.33341C2.024 10.5 1.72725 10.3771 1.50846 10.1583C1.28966 9.9395 1.16675 9.64275 1.16675 9.33333V6.41667C1.16675 6.10725 1.28966 5.8105 1.50846 5.59171C1.72725 5.37292 2.024 5.25 2.33341 5.25H11.6667C11.9762 5.25 12.2729 5.37292 12.4917 5.59171C12.7105 5.8105 12.8334 6.10725 12.8334 6.41667V9.33333C12.8334 9.64275 12.7105 9.9395 12.4917 10.1583C12.2729 10.3771 11.9762 10.5 11.6667 10.5H10.5001" stroke="var(--mono-gray-icon)" stroke-linecap="round" stroke-linejoin="round"/>
<path d="M10.5 8.16663H3.5V12.8333H10.5V8.16663Z" stroke="var(--mono-gray-icon)" stroke-linecap="round" stroke-linejoin="round"/>
</g>
<defs>
<clipPath id="clip0_1_635">
<rect width="14" height="14" fill="white"/>
</clipPath>
</defs>
</svg>
