<svg width="24" height="24" viewBox="0 0 24 24" fill="none" xmlns="http://www.w3.org/2000/svg">
<mask id="mask0_1_498" style="mask-type:alpha" maskUnits="userSpaceOnUse" x="0" y="0" width="24" height="24">
<rect width="24" height="24" fill="#D9D9D9"/>
</mask>
<g mask="url(#mask0_1_498)">
<circle cx="12" cy="12" r="10" fill="#F06E00"/>
<path d="M11.7607 17.1465C9.43164 17.1465 7.76172 15.8574 7.71777 14.0117H9.94434C9.98828 14.8027 10.75 15.3301 11.7754 15.3301C12.8301 15.3301 13.5918 14.7295 13.5771 13.8799C13.5918 13.0156 12.8154 12.4004 11.5703 12.4004H10.5889V10.7744H11.5703C12.6104 10.7744 13.3428 10.2031 13.3428 9.36816C13.3428 8.5625 12.7275 8.00586 11.79 8.00586C10.8525 8.00586 10.0762 8.5332 10.0469 9.33887H7.9375C7.9668 7.50781 9.62207 6.24805 11.79 6.24805C14.002 6.24805 15.4814 7.55176 15.4668 9.23633C15.4814 10.4229 14.6465 11.2725 13.46 11.4775V11.5654C15.0127 11.7559 15.877 12.708 15.8623 14.0264C15.877 15.8428 14.1484 17.1465 11.7607 17.1465Z" fill="white"/>
</g>
</svg>
